<mxfile host="app.diagrams.net" modified="2023-06-02T06:14:04.720Z" agent="Mozilla/5.0 (Windows NT 10.0; Win64; x64) AppleWebKit/537.36 (KHTML, like Gecko) Chrome/113.0.0.0 Safari/537.36" etag="rDBB_HlZYoUMcAOHv4rp" version="21.3.6" type="github">
  <diagram name="第 1 页" id="qekqVT2tmqbkOw27bvAT">
    <mxGraphModel dx="987" dy="511" grid="0" gridSize="10" guides="1" tooltips="1" connect="1" arrows="1" fold="1" page="1" pageScale="1" pageWidth="827" pageHeight="1169" math="0" shadow="0">
      <root>
        <mxCell id="0" />
        <mxCell id="1" parent="0" />
        <mxCell id="Y2BRnFFMAR7ap2CbihRi-1" value="角色" style="rounded=0;whiteSpace=wrap;html=1;" vertex="1" parent="1">
          <mxGeometry x="329" y="208" width="120" height="60" as="geometry" />
        </mxCell>
        <mxCell id="Y2BRnFFMAR7ap2CbihRi-2" value="角色名称" style="ellipse;whiteSpace=wrap;html=1;" vertex="1" parent="1">
          <mxGeometry x="469" y="108" width="102" height="69" as="geometry" />
        </mxCell>
        <mxCell id="Y2BRnFFMAR7ap2CbihRi-3" value="描述" style="ellipse;whiteSpace=wrap;html=1;" vertex="1" parent="1">
          <mxGeometry x="520" y="203.5" width="102" height="69" as="geometry" />
        </mxCell>
        <mxCell id="Y2BRnFFMAR7ap2CbihRi-4" value="编号" style="ellipse;whiteSpace=wrap;html=1;" vertex="1" parent="1">
          <mxGeometry x="159" y="203.5" width="102" height="69" as="geometry" />
        </mxCell>
        <mxCell id="Y2BRnFFMAR7ap2CbihRi-5" value="角色id" style="ellipse;whiteSpace=wrap;html=1;" vertex="1" parent="1">
          <mxGeometry x="200" y="108" width="102" height="69" as="geometry" />
        </mxCell>
        <mxCell id="Y2BRnFFMAR7ap2CbihRi-6" value="" style="endArrow=none;html=1;rounded=0;entryX=1;entryY=0;entryDx=0;entryDy=0;exitX=0;exitY=1;exitDx=0;exitDy=0;" edge="1" parent="1" source="Y2BRnFFMAR7ap2CbihRi-2" target="Y2BRnFFMAR7ap2CbihRi-1">
          <mxGeometry width="50" height="50" relative="1" as="geometry">
            <mxPoint x="418" y="138" as="sourcePoint" />
            <mxPoint x="399" y="218" as="targetPoint" />
          </mxGeometry>
        </mxCell>
        <mxCell id="Y2BRnFFMAR7ap2CbihRi-7" value="" style="endArrow=none;html=1;rounded=0;entryX=1;entryY=0.5;entryDx=0;entryDy=0;exitX=0;exitY=0.5;exitDx=0;exitDy=0;" edge="1" parent="1" source="Y2BRnFFMAR7ap2CbihRi-3" target="Y2BRnFFMAR7ap2CbihRi-1">
          <mxGeometry width="50" height="50" relative="1" as="geometry">
            <mxPoint x="428" y="148" as="sourcePoint" />
            <mxPoint x="409" y="228" as="targetPoint" />
          </mxGeometry>
        </mxCell>
        <mxCell id="Y2BRnFFMAR7ap2CbihRi-8" value="" style="endArrow=none;html=1;rounded=0;entryX=0;entryY=0.5;entryDx=0;entryDy=0;exitX=1;exitY=0.5;exitDx=0;exitDy=0;" edge="1" parent="1" source="Y2BRnFFMAR7ap2CbihRi-4" target="Y2BRnFFMAR7ap2CbihRi-1">
          <mxGeometry width="50" height="50" relative="1" as="geometry">
            <mxPoint x="458" y="178" as="sourcePoint" />
            <mxPoint x="439" y="258" as="targetPoint" />
          </mxGeometry>
        </mxCell>
        <mxCell id="Y2BRnFFMAR7ap2CbihRi-9" value="" style="endArrow=none;html=1;rounded=0;entryX=0;entryY=0;entryDx=0;entryDy=0;exitX=1;exitY=1;exitDx=0;exitDy=0;" edge="1" parent="1" source="Y2BRnFFMAR7ap2CbihRi-5" target="Y2BRnFFMAR7ap2CbihRi-1">
          <mxGeometry width="50" height="50" relative="1" as="geometry">
            <mxPoint x="468" y="188" as="sourcePoint" />
            <mxPoint x="449" y="268" as="targetPoint" />
          </mxGeometry>
        </mxCell>
      </root>
    </mxGraphModel>
  </diagram>
</mxfile>
